{
	"asset":{
		"generator":"Khronos glTF Blender I/O v4.0.44",
		"version":"2.0"
	},
	"scene":0,
	"scenes":[
		{
			"name":"Scene",
			"nodes":[
				0
			]
		}
	],
	"nodes":[
		{
			"mesh":0,
			"name":"Cube"
		}
	],
	"materials":[
		{
			"doubleSided":true,
			"name":"Material.001",
			"pbrMetallicRoughness":{
				"baseColorTexture":{
					"index":0
				},
				"metallicFactor":0,
				"roughnessFactor":0.5
			}
		}
	],
	"meshes":[
		{
			"name":"Cube.001",
			"primitives":[
				{
					"attributes":{
						"POSITION":0,
						"NORMAL":1,
						"TEXCOORD_0":2
					},
					"indices":3,
					"material":0
				}
			]
		}
	],
	"textures":[
		{
			"sampler":0,
			"source":0
		}
	],
	"images":[
		{
			"mimeType":"image/png",
			"name":"orc_club",
			"uri":"orc_club.png"
		}
	],
	"accessors":[
		{
			"bufferView":0,
			"componentType":5126,
			"count":336,
			"max":[
				1.2947641611099243,
				5.726288795471191,
				1.3366360664367676
			],
			"min":[
				-2.0142900943756104,
				-4.068953514099121,
				-1.2140705585479736
			],
			"type":"VEC3"
		},
		{
			"bufferView":1,
			"componentType":5126,
			"count":336,
			"type":"VEC3"
		},
		{
			"bufferView":2,
			"componentType":5126,
			"count":336,
			"type":"VEC2"
		},
		{
			"bufferView":3,
			"componentType":5123,
			"count":396,
			"type":"SCALAR"
		}
	],
	"bufferViews":[
		{
			"buffer":0,
			"byteLength":4032,
			"byteOffset":0,
			"target":34962
		},
		{
			"buffer":0,
			"byteLength":4032,
			"byteOffset":4032,
			"target":34962
		},
		{
			"buffer":0,
			"byteLength":2688,
			"byteOffset":8064,
			"target":34962
		},
		{
			"buffer":0,
			"byteLength":792,
			"byteOffset":10752,
			"target":34963
		}
	],
	"samplers":[
		{
			"magFilter":9729,
			"minFilter":9987
		}
	],
	"buffers":[
		{
			"byteLength":11544,
			"uri":"orc_club.bin"
		}
	]
}
